<svg xmlns="http://www.w3.org/2000/svg" viewBox="0 0 384 355.18"><defs><style>.cls-1{fill:#fea1c0;}.cls-2{fill:#fea1bf;}.cls-3{fill:#fe80a9;}.cls-4{fill:#fe7fa8;}.cls-5{fill:#ee5ca3;}.cls-6{fill:#fd7c4f;}.cls-7{fill:#fe80a8;}.cls-8{fill:#fea0bf;}.cls-9{fill:#fe8fb3;}.cls-10{fill:#ee5ca4;}.cls-11{fill:#d6e7fd;}</style></defs><g id="Layer_2" data-name="Layer 2"><g id="Layer_1-2" data-name="Layer 1"><path class="cls-1" d="M384,290.74c-2.64,6.67-7.65,9.19-14.68,9-9.61-.26-19.22-.09-28.83-.05-6.83,0-11.09,4.38-11.26,11.2-.15,6,.07,12-.85,17.87-2,13-14.05,24.14-27.22,25.73a84.21,84.21,0,0,1-10,.66q-56.55.08-113.1,0c-1.61,0-4.87-.18-6.48-.29a22.79,22.79,0,0,1,3.53-2.06c3.9-.58,6.61-2,10.43-2.93,6.09-1.45,12-3.37,18-5.09,7.75-3,15.66-6.56,23.41-9.59,3.78-2,7.32-1.59,11.09-3.58a40.19,40.19,0,0,0,4.87,1q25.13.06,50.24,0c9.69,0,13.56-4,13.67-13.61.06-5.1-.09-10.29.75-15.28a31.91,31.91,0,0,1,31.56-26.59c10.25-.06,20.51.27,30.74-.12,6.83-.26,11.57,2,14.17,8.42Z"/><path class="cls-2" d="M7.51,244.23c-1.75-6.78-3.65-13.54-5.22-20.37C1.28,219.46.75,215,0,210.48V184.23c1-5.81,1.77-11.66,3.05-17.4,1.23-5.51,3-10.9,4.5-16.35,1.19.83,3.72.53,4.73,1.54,13.19,13.12,26.46,25.55,39.65,38.67,1.59,1.57,3.87,4.09,5.49,5.42-.73,1.09-1.49,2.81-1.75,3.06C40.85,214,25.89,228.36,11,243.17,10.37,243.82,8.35,243.77,7.51,244.23Z"/><path class="cls-3" d="M7.51,244.23A11,11,0,0,0,10,242.81q22.29-22.22,44.51-44.49a18.54,18.54,0,0,0,1.14-1.71c-1.62-1.33-3.48-2.62-5.06-4.19C37.42,179.3,24.29,166.11,11.1,153a25.16,25.16,0,0,0-3.55-2.51c3-7.74,6.69-16.8,9.7-24.54,1.19.83,4.65,1,5.66,2,16.18,16.12,30.13,32,46.24,48.2.95.95,1.33,1.44,1,3.33,9.59-9.59,15.87-16.6,25.37-26.09a25.76,25.76,0,0,1-3.4-2.41c-17.85-17.8-34-35-51.84-52.83-1-1.05-.45-2.92-1.43-4L54.74,78.44c.55.67,2.85.71,3.46,1.32C77,98.57,93.2,115,112,133.76c.5.5,1.88,1.83,2,1.89,9-9,15.23-15.49,24.19-24.46-.37-.43-4.27-3.62-5-4.3-16.59-16.6-28.92-29.41-45.53-46-.78-.78-.14-2.9-1-3.57l22.84-9.65c.37.49,2,.33,2.44.76,14.71,14.73,30.48,28.69,45.23,43.37.75.75-.54,2.63.39,3.18v32.37c1.6-1.52,2-4.47,3-5.42,21.29-21.28,41.3-41.66,62.61-62.93,1-1,4.13-.71,5.29-1.63,5.94,3.31,12.08,6.32,17.76,10,5,3.25,9.41,7.3,14.09,11-.46.59-.1,2.84-.62,3.36-32.84,32.87-66,65.64-98.87,98.48a59.67,59.67,0,0,1-5.22,3.7c0-17.31.86-35.66.86-53-.52-.37.94-.34.42-.7a10.2,10.2,0,0,1-2,2.64c-44.41,44.49-89.16,89.11-133.63,133.54-1.1,1.09-3.43.07-4.71,1Z"/><path class="cls-4" d="M54.72,316.42,38.21,299.74c1.29-.9.34-4.39,1.43-5.48,37.2-37.15,74.91-74.66,112.11-111.82,1.11-1.11,7.56.66,8.84-.29,0,9.81-2,16.67-2,27.33,1.57-1.44.32-1.18,1.17-2,37.65-37.64,74.35-74.79,112-112.45.87-.87,3.56,0,4.36-.91q.33.09.66.15c8.19,10.36,16,21,21.63,33-1.27.94.15,3.33-1,4.43C253,176,208.88,220.64,164.47,265c-1.11,1.11-6.85,2.38-8.12,3.32,0-17.14-.39-32.35-.39-49.5-.33-.11.33-1.54,0-1.66-1,.88-.94,1.42-1.86,2.35-32.22,32.21-64.82,61.82-97,94C56.21,314.44,55.5,315.47,54.72,316.42Z"/><path class="cls-5" d="M157.59,266.05a32.46,32.46,0,0,0,3.8-2.85Q228,196.66,294.58,130.08a31.46,31.46,0,0,1,3.79-2.84q4.51,11.25,9,22.48c-.48.39-.15,3.62-.59,4.06-14.92,14.92-27.93,27.4-42.84,42.33-.51.51-2.07.32-2.55.88.32.44,1.25.62,1.5.88,14.74,14.75,28.66,26,43.44,40.69.74.74.26,5.15,1.2,5.69q-4.56,11.61-9.11,23.23c-1.19-.84-4.51,1.57-5.53.56-16.19-16.13-31.22-32.19-47.34-48.39a12.78,12.78,0,0,1-1.5-1.57c-9.63,9.63-15.21,13.65-24.53,23,.59.46,1.45-.12,2.42.85,17.85,17.82,36,32,53.8,49.82,1.05,1.06.34,6.87,1.33,8-5.29,5.26-11.49,11.5-16.78,16.76-.26-.43-3.64.3-4,0-18.9-18.93-35-35.48-53.91-54.44-1.82-1.84-1-2.81-2.64-1.18-6.84,6.95-13.48,12.45-20.44,19.27-1.23,1.2-.88,1.3-2.35,2.25,0,.72-.6.85-.59,1.57,1.21.69,2.08.32,3,1.27C195,300.58,210.74,315,226.2,330.45c1.67,1.68.2,5.82,1.81,7.55l-23.26,9.07c-.27-.42-3.94-.33-4.28-.67-14.62-14.64-26.73-27.27-41.38-41.87-.67-.67-.68-3.6-1.51-4.1,0-.23-1.3-.92-1.33-1.15,0-10.28.58-19.76.55-30C156.86,268.29,157.53,267,157.59,266.05Z"/><path class="cls-6" d="M290.32,47.7c-4.2-11-3.93-21.7,2.36-31.93a33.82,33.82,0,0,1,40.6-13.59c14.92,5.63,24.11,21.75,21.24,37.26-3,16.14-16.38,27.92-32.45,27.73-5.34-.07-10.66-2-16-3.06C295.2,64.63,290.24,56.87,290.32,47.7Z"/><path class="cls-5" d="M276.74,94.24c-.8.94-2.2,1.81-3.07,2.68q-56.45,56.49-112.92,112.94c-.85.85-1.76,1.63-3.34,3.07V182.66c.06-.71.12-1.41.17-2.12a15.62,15.62,0,0,0,2.74-1.8q49.32-49.26,98.58-98.57a18.23,18.23,0,0,0,1.37-1.75c.24,0,.58-.08.82-.07C266.12,83.56,271.71,89,276.74,94.24Z"/><path class="cls-4" d="M228,338c-1.61-1.73-3.17-3.51-4.84-5.18Q200,309.6,176.74,286.44a16.34,16.34,0,0,0-3.6-2.1l0-2.17a26.39,26.39,0,0,0,4.39-2.88q10.44-10.23,20.69-20.67c1.61-1.63,2.82-2.05,4.64-.21q28.3,28.44,56.69,56.79a6.4,6.4,0,0,1,.79,1.26l-21,15.57Z"/><path class="cls-7" d="M276.18,300.7c-1-1.12-1.91-2.3-3-3.35q-26.75-26.78-53.52-53.52a25.74,25.74,0,0,0-2.73-2.17l27.8-27.8a10,10,0,0,0,1.65,2.6q24.18,24.3,48.47,48.49a26.76,26.76,0,0,0,3.55,2.53A137.71,137.71,0,0,1,276.18,300.7Z"/><path class="cls-8" d="M38.9,94.11c1,1.12,1.91,2.29,3,3.34q26.72,26.76,53.48,53.47A17.92,17.92,0,0,0,98.24,153L70.3,180.9a11.57,11.57,0,0,0-1.74-2.66Q44.4,154,20.13,129.79a26.65,26.65,0,0,0-3.54-2.53A140.28,140.28,0,0,1,38.9,94.11Z"/><path class="cls-8" d="M86.65,57.34a24.94,24.94,0,0,1,2.63,2q24.9,24.87,49.77,49.77c.69.68,1.27,1.47,1.64,1.9-9,9-17.76,17.76-26.75,26.76a9.44,9.44,0,0,1-1.17-1q-28.22-28.18-56.39-56.4c-.61-.61-1.09-1.34-1.64-2C64.34,69.83,74.71,62.39,86.65,57.34Z"/><path class="cls-9" d="M157.55,95a13.39,13.39,0,0,1-2.78-1.69q-22.12-22-44.17-44.14a13.6,13.6,0,0,1-1.11-1.48c6.45-1.69,12.8-4,19.35-4.92,10.27-1.5,20.67-2.84,31-2.92a135.59,135.59,0,0,1,37.93,5.23c2.38.67,4.69,1.56,7,2.36-3.58,3.77-7.08,7.63-10.76,11.3Q175.87,76.92,157.55,95Z"/><path class="cls-3" d="M307.55,244.25a13.11,13.11,0,0,1-2.79-1.66q-22.15-22.08-44.24-44.23a7.93,7.93,0,0,1-.75-1c.48-.55.91-1.14,1.42-1.65Q283.57,173.28,306,150.9a18.29,18.29,0,0,1,1.43-1.18c2.26,10.17,5.3,20.24,6.61,30.53a149,149,0,0,1-5,60.24C308.63,241.78,308,243,307.55,244.25Z"/><path class="cls-10" d="M157.55,95q18.27-18.12,36.51-36.26c3.68-3.67,7.18-7.53,10.76-11.3l23.59,10A42.11,42.11,0,0,0,225,60.15Q193,92.06,161.08,124c-1,1-1.93,1.85-3.53,3.37Z"/><path class="cls-11" d="M276.08,94.09,261,78.46q13.41-13.59,26.8-27.2a27.6,27.6,0,0,0,2.54-3.56,39.38,39.38,0,0,0,15.76,16.41Q295.54,74.88,285,85.65c-2.77,2.83-5.49,5.72-8.23,8.59Q276.41,94.18,276.08,94.09Z"/><path class="cls-8" d="M157.58,180.54c-.05.71-.11,1.41-.17,2.12a33.65,33.65,0,0,0-3.79,2.87Q97.82,241.26,42.05,297a27.92,27.92,0,0,1-3.84,2.72c-5.36-7.25-10.86-14.41-16-21.81-2.25-3.23-3.8-7-5.66-10.46a29.57,29.57,0,0,0,3.82-2.77q66.71-66.64,133.33-133.36a18.55,18.55,0,0,0,2.32-3.8l1.57,1.09Z"/><path class="cls-8" d="M157.59,266.05l-.18,2.87a24.06,24.06,0,0,0-3.27,2.32Q122,303.27,90,335.38a21.07,21.07,0,0,0-2.24,3.28c-12-6-23.26-13-33.06-22.24.78-.95,1.49-2,2.36-2.85q48.3-48.35,96.63-96.65c.92-.92,1.92-1.77,2.89-2.65l1,.34Z"/><path class="cls-7" d="M87.78,338.66A21.07,21.07,0,0,1,90,335.38q32-32.11,64.12-64.14a24.06,24.06,0,0,1,3.27-2.32l.09,30.82a7.54,7.54,0,0,0-1.21.86Q134,322.83,111.8,345.11a14.23,14.23,0,0,0-1.61,2.43Z"/><path class="cls-7" d="M157.58,300.43a12.34,12.34,0,0,1,2.47,1.53q22,21.9,43.89,43.87a7.56,7.56,0,0,1,.81,1.24c-6,1.72-12,3.64-18.08,5.09-3.83.9-7.82,1.06-11.73,1.64-.62.1-1.17.7-1.75,1.06l-15.62.18Q157.57,327.74,157.58,300.43Z"/><path class="cls-2" d="M157.58,300.43q0,27.3,0,54.61c-16.15-.24-32-2.3-47.38-7.5a14.23,14.23,0,0,1,1.61-2.43Q134,322.82,156.29,300.6a7.54,7.54,0,0,1,1.21-.86C157.53,300,157.56,300.2,157.58,300.43Z"/></g></g></svg>